<?xml version="1.0"?>
<svg version="1.0" xmlns="http://www.w3.org/2000/svg"
 width="60.000000pt" height="60.000000pt" viewBox="0 0 60.000000 60.000000"
 preserveAspectRatio="xMidYMid meet">

<g transform="translate(0.000000,60.000000) scale(0.100000,-0.100000)"
fill="#000000" stroke="none">
<path d="M220 527 c-49 -16 -133 -102 -148 -153 -28 -94 -8 -169 63 -239 102
-103 243 -101 338 5 90 100 90 220 0 320 -65 72 -158 97 -253 67z m175 -127
c0 -12 -18 -16 -89 -18 -87 -3 -115 5 -101 27 4 8 38 11 98 9 74 -2 92 -6 92
-18z m0 -100 c0 -12 -18 -16 -89 -18 -87 -3 -115 5 -101 27 4 8 38 11 98 9 74
-2 92 -6 92 -18z m0 -100 c0 -12 -18 -16 -89 -18 -87 -3 -115 5 -101 27 4 8
38 11 98 9 74 -2 92 -6 92 -18z"/>
</g>
</svg>
