<?xml version="1.0"?>
<svg version="1.0" xmlns="http://www.w3.org/2000/svg"
 width="60.000000pt" height="60.000000pt" viewBox="0 0 60.000000 60.000000"
 preserveAspectRatio="xMidYMid meet">

<g transform="translate(0.000000,60.000000) scale(0.100000,-0.100000)"
fill="#000000" stroke="none">
<path d="M199 532 c-92 -48 -137 -150 -109 -251 12 -45 81 -128 131 -158 14
-9 36 -35 48 -59 11 -24 25 -44 31 -44 6 0 20 20 31 44 12 24 34 50 48 59 50
30 119 113 131 158 28 101 -17 203 -109 251 -71 37 -131 37 -202 0z m147 -124
c28 -20 43 -37 39 -46 -3 -7 -5 -34 -5 -58 0 -42 -1 -44 -30 -44 -27 0 -30 3
-30 30 0 23 -4 30 -20 30 -16 0 -20 -7 -20 -30 0 -27 -3 -30 -30 -30 -29 0
-30 1 -31 50 -1 28 -2 54 -3 59 -1 8 71 70 82 71 2 0 24 -14 48 -32z"/>
</g>
</svg>
