<?xml version="1.0"?>
<svg version="1.0" xmlns="http://www.w3.org/2000/svg"
 width="100.000000pt" height="100.000000pt" viewBox="0 0 100.000000 100.000000"
 preserveAspectRatio="xMidYMid meet">

<g transform="translate(0.000000,100.000000) scale(0.100000,-0.100000)"
fill="#000000" stroke="none">
<path d="M289 927 c-96 -27 -174 -90 -221 -180 -18 -33 -23 -58 -23 -122 0
-88 17 -133 75 -199 17 -18 30 -38 30 -44 0 -10 -64 -70 -95 -88 -12 -6 -16
-15 -10 -23 12 -21 120 -8 195 23 50 20 86 27 155 29 76 2 100 8 155 34 126
59 184 145 185 273 0 65 -4 82 -29 128 -61 109 -164 171 -294 178 -45 2 -96
-1 -123 -9z m271 -187 c0 -19 -7 -20 -170 -20 -163 0 -170 1 -170 20 0 19 7
20 170 20 163 0 170 -1 170 -20z m0 -100 c0 -19 -7 -20 -170 -20 -163 0 -170
1 -170 20 0 19 7 20 170 20 163 0 170 -1 170 -20z m-100 -100 c0 -19 -7 -20
-120 -20 -113 0 -120 1 -120 20 0 19 7 20 120 20 113 0 120 -1 120 -20z"/>
<path d="M770 552 c0 -10 -11 -40 -24 -65 l-23 -47 28 0 c22 0 29 -5 29 -20 0
-17 -7 -20 -47 -20 -38 -1 -55 -7 -83 -30 l-34 -30 82 0 c74 0 82 -2 82 -19 0
-17 -12 -19 -157 -25 -211 -8 -283 -16 -283 -29 0 -6 22 -32 48 -57 59 -57
119 -80 227 -86 57 -4 95 -13 131 -30 60 -29 147 -41 187 -25 37 14 34 25 -13
46 -65 29 -67 38 -23 89 77 87 82 185 15 275 -25 34 -106 91 -129 91 -7 0 -13
-8 -13 -18z"/>
</g>
</svg>
