<?xml version="1.0"?>
<svg version="1.0" xmlns="http://www.w3.org/2000/svg"
 width="60.000000pt" height="60.000000pt" viewBox="0 0 60.000000 60.000000"
 preserveAspectRatio="xMidYMid meet">

<g transform="translate(0.000000,60.000000) scale(0.100000,-0.100000)"
fill="#000000" stroke="none">
<path d="M272 548 c-7 -7 -12 -18 -12 -26 0 -8 -30 -48 -66 -88 -62 -70 -64
-74 -40 -74 19 0 43 17 86 63 l60 62 60 -62 c43 -46 67 -63 86 -63 24 0 22 4
-40 74 -36 40 -66 80 -66 88 0 19 -20 38 -40 38 -9 0 -21 -5 -28 -12z"/>
<path d="M32 308 c-16 -16 -16 -200 0 -216 17 -17 519 -17 536 0 16 16 16 200
0 216 -17 17 -519 17 -536 0z m157 -62 c7 -8 11 -31 9 -52 -6 -73 -68 -68 -68
5 0 54 32 79 59 47z m101 -6 c9 -17 6 -24 -15 -44 -14 -13 -25 -31 -25 -40 0
-9 -4 -16 -10 -16 -6 0 -10 27 -10 60 0 57 1 60 25 60 14 0 29 -8 35 -20z m80
10 c0 -5 -7 -10 -15 -10 -8 0 -15 -7 -15 -15 0 -8 7 -15 15 -15 8 0 15 -4 15
-10 0 -5 -7 -10 -15 -10 -8 0 -15 -7 -15 -15 0 -8 7 -15 15 -15 8 0 15 -4 15
-10 0 -5 -11 -10 -25 -10 -24 0 -25 3 -25 60 0 57 1 60 25 60 14 0 25 -4 25
-10z m72 -28 l17 -37 -6 38 c-3 24 -1 37 6 37 7 0 11 -23 11 -60 0 -33 -4 -60
-9 -60 -4 0 -15 17 -24 38 l-15 37 -1 -37 c-2 -63 -21 -42 -21 22 0 71 16 79
42 22z"/>
<path d="M155 227 c-9 -22 -2 -62 10 -60 6 1 11 14 13 29 4 32 -14 56 -23 31z"/>
<path d="M250 219 c0 -11 5 -17 10 -14 6 3 10 13 10 21 0 8 -4 14 -10 14 -5 0
-10 -9 -10 -21z"/>
</g>
</svg>
