<?xml version="1.0"?>
<svg version="1.0" xmlns="http://www.w3.org/2000/svg"
 width="60.000000pt" height="60.000000pt" viewBox="0 0 60.000000 60.000000"
 preserveAspectRatio="xMidYMid meet">

<g transform="translate(0.000000,60.000000) scale(0.100000,-0.100000)"
fill="#000000" stroke="none">
<path d="M220 527 c-49 -16 -133 -102 -148 -153 -28 -94 -8 -169 63 -239 102
-103 243 -101 338 5 90 100 90 220 0 320 -65 72 -158 97 -253 67z m190 -61
c59 -39 85 -89 85 -166 0 -78 -26 -127 -88 -168 -56 -37 -153 -39 -210 -3 -76
47 -111 140 -88 229 14 51 75 117 123 131 53 16 135 6 178 -23z"/>
<path d="M225 350 l-50 -50 53 -52 c40 -41 54 -50 64 -40 9 9 6 18 -17 42
l-28 29 84 3 c67 2 84 6 84 18 0 12 -17 16 -84 18 l-84 3 28 29 c24 25 27 50
7 50 -4 0 -30 -23 -57 -50z"/>
</g>
</svg>
