<?xml version="1.0"?>
<svg version="1.0" xmlns="http://www.w3.org/2000/svg"
 width="60.000000pt" height="60.000000pt" viewBox="0 0 60.000000 60.000000"
 preserveAspectRatio="xMidYMid meet">

<g transform="translate(0.000000,60.000000) scale(0.100000,-0.100000)"
fill="#000000" stroke="none">
<path d="M145 514 c-73 -18 -99 -49 -76 -92 7 -12 11 -82 11 -169 0 -103 4
-153 12 -161 17 -17 399 -17 416 0 8 8 12 59 12 165 0 99 4 160 12 172 15 24
6 45 -28 68 -24 15 -52 18 -184 20 -85 1 -164 -1 -175 -3z m294 -53 c17 -9 20
-16 12 -24 -7 -7 -11 -65 -11 -164 l0 -153 -160 0 -160 0 0 154 c0 93 -4 157
-10 161 -19 11 -10 24 23 34 45 14 276 8 306 -8z"/>
<path d="M164 309 c-10 -17 13 -36 27 -22 12 12 4 33 -11 33 -5 0 -12 -5 -16
-11z"/>
<path d="M364 309 c-10 -17 13 -36 27 -22 12 12 4 33 -11 33 -5 0 -12 -5 -16
-11z"/>
<path d="M242 268 c8 -22 37 -34 55 -22 33 21 26 34 -17 34 -28 0 -40 -4 -38
-12z"/>
</g>
</svg>
