<?xml version="1.0"?>
<svg version="1.0" xmlns="http://www.w3.org/2000/svg"
 width="60.000000pt" height="60.000000pt" viewBox="0 0 60.000000 60.000000"
 preserveAspectRatio="xMidYMid meet">

<g transform="translate(0.000000,60.000000) scale(0.100000,-0.100000)"
fill="#000000" stroke="none">
<path d="M267 534 c-13 -13 -7 -48 18 -119 24 -69 47 -90 53 -49 2 12 -4 39
-14 60 -9 22 -19 54 -23 73 -6 34 -20 48 -34 35z"/>
<path d="M166 492 c-9 -14 42 -147 56 -147 22 0 21 35 -3 96 -22 54 -40 72
-53 51z"/>
<path d="M366 492 c-9 -14 42 -147 56 -147 22 0 21 35 -3 96 -22 54 -40 72
-53 51z"/>
<path d="M65 290 c-4 -6 -3 -16 2 -23 5 -7 15 -30 21 -52 7 -27 29 -56 62 -88
l50 -47 101 0 101 0 53 55 c33 33 56 67 60 87 4 18 12 38 17 45 23 29 -6 33
-232 33 -148 0 -231 -4 -235 -10z"/>
</g>
</svg>
